<svg xmlns="http://www.w3.org/2000/svg" viewBox="0 0 55.562 15.61"><defs><path id="a" d="M16.916 1.89h41.828v13.765H16.916z"/></defs><g fill="#9d9f9e" stroke-width=".257" aria-label="c5center" font-family="sans-serif" font-size="8.467" font-weight="400" letter-spacing="0" style="line-height:125%;white-space:pre;shape-inside:url(#a)" transform="matrix(1.03085 0 0 1.03085 .483 .814)" word-spacing="0"><path d="M21.096 9.326q-.389.186-.74.289-.348.103-.74.103-.5 0-.918-.144-.418-.15-.715-.447-.302-.297-.468-.752-.165-.455-.165-1.063 0-1.132.62-1.777.624-.645 1.646-.645.396 0 .777.111.384.112.703.273v.864h-.042q-.355-.277-.736-.426-.376-.148-.735-.148-.662 0-1.046.446-.38.442-.38 1.302 0 .835.371 1.286.377.447 1.055.447.235 0 .48-.062.243-.063.437-.162.17-.087.319-.182.148-.099.235-.17h.042z"/><path d="M26.11 7.66q0 .43-.157.822-.157.393-.43.662-.297.29-.71.446-.41.153-.952.153-.504 0-.971-.107-.467-.104-.79-.252V8.51h.058q.34.215.794.368.455.149.893.149.293 0 .566-.083.277-.082.492-.29.182-.177.273-.425.095-.248.095-.575 0-.318-.112-.537-.107-.22-.301-.351-.215-.157-.525-.22-.306-.066-.687-.066-.363 0-.702.05-.335.05-.58.1V3.458h3.705v.724h-2.906V5.82q.177-.017.363-.025.187-.008.323-.008.5 0 .876.087.377.082.69.297.331.228.513.587.182.36.182.902z"/><path d="M30.89 9.326q-.39.186-.74.289-.348.103-.74.103-.5 0-.918-.144-.418-.15-.716-.447-.301-.297-.467-.752-.165-.455-.165-1.063 0-1.132.62-1.777.624-.645 1.645-.645.397 0 .778.111.384.112.702.273v.864h-.041q-.356-.277-.736-.426-.376-.148-.736-.148-.661 0-1.046.446-.38.442-.38 1.302 0 .835.372 1.286.376.447 1.054.447.236 0 .48-.062.244-.063.438-.162.17-.087.318-.182.15-.099.236-.17h.041z"/><path d="M35.751 7.387h-3.402q0 .426.128.744.128.314.351.517.215.198.509.297.297.1.653.1.471 0 .947-.187.48-.19.682-.372h.041v.848q-.393.165-.802.277-.41.112-.86.112-1.15 0-1.794-.62-.645-.625-.645-1.77 0-1.133.616-1.798.62-.666 1.629-.666.934 0 1.439.546.508.545.508 1.55zm-.756-.596q-.005-.611-.31-.946-.302-.335-.922-.335-.625 0-.997.368-.368.368-.417.913Z"/><path d="M40.79 9.615h-.777v-2.63q0-.318-.037-.595-.037-.28-.136-.438-.104-.173-.298-.256-.194-.087-.504-.087-.319 0-.666.157-.347.157-.666.401v3.448h-.777V4.997h.777v.513q.364-.302.753-.471.389-.17.798-.17.748 0 1.14.45.394.451.394 1.299z"/><path d="M44.685 9.574q-.22.058-.48.095-.256.037-.459.037-.707 0-1.074-.38-.368-.38-.368-1.22V5.65h-.525v-.653h.525V3.67h.777v1.327h1.604v.653H43.08v2.105q0 .363.016.57.017.203.116.38.091.166.248.244.161.075.488.075.19 0 .397-.054.207-.058.298-.095h.04z"/><path d="M49.489 7.387h-3.403q0 .426.128.744.129.314.352.517.215.198.508.297.298.1.654.1.47 0 .946-.187.48-.19.682-.372h.042v.848q-.393.165-.802.277-.41.112-.86.112-1.15 0-1.794-.62-.645-.625-.645-1.77 0-1.133.616-1.798.62-.666 1.629-.666.934 0 1.438.546.509.545.509 1.55zm-.757-.596q-.004-.611-.31-.946-.302-.335-.922-.335-.624 0-.996.368-.368.368-.418.913Z"/><path d="M53.548 5.845h-.04q-.175-.042-.34-.058-.161-.02-.384-.02-.36 0-.695.16-.335.157-.645.41v3.278h-.777V4.997h.777v.682q.463-.372.815-.525.355-.157.723-.157.203 0 .294.013.09.008.272.037z"/></g><circle cx="7.418" cy="7.996" r="6.929" fill="#196da7" paint-order="markers fill stroke"/><circle cx="7.464" cy="8.046" r="5.719" fill="#fff" paint-order="markers fill stroke"/><circle cx="7.484" cy="7.975" r="3.247" fill="#4296db" paint-order="markers fill stroke"/><circle cx="9.733" cy="1.885" r="2.228" fill="#196da7" stroke="#fff" stroke-dashoffset="5.125" stroke-linejoin="round" stroke-width=".906" paint-order="markers fill stroke"/><circle cx="10.265" cy="14.069" r="2.005" fill="#196da7" stroke="#fff" stroke-dashoffset="5.125" stroke-linejoin="round" stroke-width=".906" paint-order="markers fill stroke"/><circle cx="1.217" cy="-9.819" r="1.611" fill="#196da7" stroke="#fff" stroke-dashoffset="5.125" stroke-linejoin="round" stroke-width=".906" paint-order="markers fill stroke" transform="scale(1 -1)"/></svg>