<?xml version="1.0" standalone="no"?>
<!DOCTYPE svg PUBLIC "-//W3C//DTD SVG 20010904//EN"
 "http://www.w3.org/TR/2001/REC-SVG-20010904/DTD/svg10.dtd">
<svg version="1.0" xmlns="http://www.w3.org/2000/svg"
 width="260.000000pt" height="260.000000pt" viewBox="0 0 260.000000 260.000000"
 preserveAspectRatio="xMidYMid meet">
<metadata>
Created by potrace 1.14, written by Peter Selinger 2001-2017
</metadata>
<g transform="translate(0.000000,260.000000) scale(0.100000,-0.100000)"
fill="#000000" stroke="none">
<path d="M1276 2497 c-10 -17 -36 -66 -58 -107 -23 -41 -50 -90 -61 -110 -11
-19 -31 -55 -45 -80 -88 -163 -194 -357 -203 -370 -5 -8 -15 -27 -21 -42 -8
-18 -22 -28 -42 -32 -17 -3 -42 -8 -56 -11 -34 -7 -239 -46 -270 -52 -14 -2
-59 -11 -100 -20 -97 -19 -101 -20 -141 -27 -19 -3 -45 -8 -59 -11 -14 -3 -50
-10 -80 -16 -30 -6 -62 -12 -70 -14 -8 -2 -25 -4 -37 -4 -13 -1 -23 -5 -23
-10 0 -9 4 -13 164 -185 61 -65 125 -133 141 -151 27 -28 254 -272 280 -299 6
-6 10 -15 10 -21 -2 -28 -18 -153 -21 -170 -4 -23 -11 -76 -19 -160 -3 -33 -8
-67 -10 -75 -2 -8 -7 -44 -10 -80 -3 -36 -8 -72 -10 -80 -2 -8 -7 -44 -10 -80
-4 -36 -8 -72 -10 -80 -2 -8 -6 -46 -10 -83 l-8 -69 51 26 c27 14 78 38 113
55 124 57 343 159 510 239 l127 60 38 -18 c22 -9 77 -35 124 -57 47 -23 193
-91 325 -153 132 -62 257 -121 278 -132 l38 -19 -6 68 c-3 37 -8 77 -10 88 -2
11 -7 43 -10 70 -6 53 -23 186 -30 245 -2 19 -11 89 -20 155 -9 66 -18 145
-21 175 -3 30 -7 60 -9 66 -4 13 9 28 147 177 58 61 116 124 129 138 13 15 80
86 149 160 174 185 180 192 180 194 0 1 -6 2 -12 2 -13 0 -174 31 -413 78 -66
13 -185 35 -265 50 -80 15 -155 31 -166 35 -12 5 -40 44 -66 92 -80 146 -110
201 -153 278 -23 41 -61 111 -85 155 -24 44 -52 95 -63 115 -11 19 -31 56 -45
83 -14 26 -28 47 -31 47 -3 0 -14 -15 -25 -33z"/>
</g>
</svg>
